<svg width="390" height="844" viewBox="0 0 390 844" fill="none" xmlns="http://www.w3.org/2000/svg">
<rect width="390" height="844" fill="#EBEDF8"/>
<rect width="390" height="124" fill="white"/>
<path d="M57.2401 23.063C57.882 23.063 58.4908 23.182 59.0663 23.4199C59.6418 23.6523 60.1509 24.0176 60.5936 24.5156C61.0419 25.0081 61.3933 25.6418 61.6478 26.4165C61.9024 27.1857 62.0297 28.1126 62.0297 29.1973V29.2139C62.0297 30.5586 61.836 31.7096 61.4486 32.667C61.0612 33.6243 60.5051 34.3604 59.7802 34.875C59.0608 35.3841 58.2002 35.6387 57.1986 35.6387C56.4626 35.6387 55.7985 35.5059 55.2064 35.2402C54.6198 34.9691 54.1329 34.5983 53.7455 34.1279C53.3636 33.652 53.1063 33.1097 52.9735 32.501L52.9569 32.4097H55.057L55.0902 32.4927C55.1954 32.7694 55.3448 33.0129 55.5385 33.2231C55.7377 33.4334 55.9756 33.5967 56.2523 33.7129C56.5345 33.8236 56.85 33.8789 57.1986 33.8789C57.8295 33.8789 58.3441 33.6935 58.7426 33.3228C59.1465 32.9465 59.4481 32.4456 59.6473 31.8203C59.8521 31.1895 59.9683 30.4922 59.996 29.7285C60.0015 29.6455 60.0043 29.5653 60.0043 29.4878C60.0043 29.4048 60.0043 29.3245 60.0043 29.2471L59.6307 27.2466C59.6307 26.7928 59.5256 26.3805 59.3153 26.0098C59.105 25.639 58.82 25.3457 58.4603 25.1299C58.1062 24.9141 57.705 24.8062 57.2567 24.8062C56.8251 24.8062 56.4294 24.9113 56.0697 25.1216C55.71 25.3319 55.4222 25.6196 55.2064 25.9849C54.9906 26.3446 54.8827 26.7485 54.8827 27.1968V27.2134C54.8827 27.6782 54.9851 28.0905 55.1898 28.4502C55.3946 28.8044 55.674 29.0838 56.0282 29.2886C56.3824 29.4933 56.7863 29.5957 57.2401 29.5957C57.6939 29.5957 58.1006 29.4961 58.4603 29.2969C58.82 29.0977 59.105 28.821 59.3153 28.4668C59.5256 28.1126 59.6307 27.7114 59.6307 27.2632V27.2466H60.1288V29.4546H59.8383C59.6944 29.77 59.4813 30.0633 59.1991 30.3345C58.9169 30.6056 58.5682 30.8242 58.1532 30.9902C57.7437 31.1562 57.2622 31.2393 56.7089 31.2393C55.9452 31.2393 55.2701 31.0677 54.6835 30.7246C54.0969 30.3815 53.6348 29.9111 53.2972 29.3135C52.9652 28.7158 52.7992 28.0407 52.7992 27.2881V27.2715C52.7992 26.458 52.9873 25.7358 53.3636 25.105C53.7455 24.4686 54.2712 23.9705 54.9408 23.6108C55.6159 23.2456 56.3824 23.063 57.2401 23.063ZM65.7982 33.7295C65.4219 33.7295 65.1065 33.605 64.8519 33.356C64.6029 33.1014 64.4784 32.7915 64.4784 32.4263C64.4784 32.0555 64.6029 31.7456 64.8519 31.4966C65.1065 31.242 65.4219 31.1147 65.7982 31.1147C66.1801 31.1147 66.4955 31.242 66.7445 31.4966C66.9935 31.7456 67.118 32.0555 67.118 32.4263C67.118 32.7915 66.9935 33.1014 66.7445 33.356C66.4955 33.605 66.1801 33.7295 65.7982 33.7295ZM65.7982 27.5703C65.4219 27.5703 65.1065 27.4458 64.8519 27.1968C64.6029 26.9422 64.4784 26.6323 64.4784 26.2671C64.4784 25.8963 64.6029 25.5864 64.8519 25.3374C65.1065 25.0828 65.4219 24.9556 65.7982 24.9556C66.1801 24.9556 66.4955 25.0828 66.7445 25.3374C66.9935 25.5864 67.118 25.8963 67.118 26.2671C67.118 26.6323 66.9935 26.9422 66.7445 27.1968C66.4955 27.4458 66.1801 27.5703 65.7982 27.5703ZM75.3773 35.3398V33.0405H69.517V31.2891C69.8324 30.7523 70.1478 30.2127 70.4633 29.6704C70.7842 29.1281 71.108 28.5885 71.4344 28.0518C71.7665 27.5094 72.0957 26.9754 72.4222 26.4497C72.7543 25.9185 73.0835 25.3955 73.41 24.8809C73.7421 24.3607 74.0741 23.8543 74.4061 23.3618H77.4193V31.2725H79.038V33.0405H77.4193V35.3398H75.3773ZM71.5092 31.3223H75.4105V25.0718H75.286C75.0425 25.4481 74.7907 25.8354 74.5306 26.2339C74.2761 26.6323 74.0188 27.0391 73.7587 27.4541C73.4986 27.8691 73.2413 28.2869 72.9867 28.7075C72.7321 29.1226 72.4803 29.5404 72.2313 29.9609C71.9823 30.376 71.7416 30.7882 71.5092 31.1978V31.3223ZM83.9935 35.3398V25.4702H83.8441L80.8641 27.5703V25.5615L83.9935 23.3618H86.1268V35.3398H83.9935Z" fill="#121212"/>
<rect opacity="0.35" x="332.073" y="23.5" width="24" height="12" rx="3.8" stroke="#121212"/>
<path opacity="0.4" d="M357.573 27.7812V31.8567C358.377 31.5116 358.901 30.7086 358.901 29.819C358.901 28.9294 358.377 28.1264 357.573 27.7812Z" fill="#121212"/>
<rect x="333.573" y="25" width="21" height="9" rx="2.5" fill="#121212"/>
<path fill-rule="evenodd" clip-rule="evenodd" d="M315.843 26.104C318.33 26.1041 320.722 27.0262 322.525 28.6796C322.66 28.8073 322.877 28.8057 323.011 28.676L324.309 27.4126C324.376 27.3468 324.414 27.2577 324.413 27.165C324.413 27.0724 324.374 26.9837 324.306 26.9187C319.575 22.544 312.111 22.544 307.38 26.9187C307.311 26.9837 307.272 27.0723 307.272 27.165C307.271 27.2577 307.309 27.3468 307.376 27.4126L308.674 28.676C308.808 28.8059 309.025 28.8075 309.161 28.6796C310.963 27.0261 313.356 26.104 315.843 26.104ZM315.84 30.3243C317.197 30.3242 318.506 30.8359 319.512 31.76C319.648 31.8912 319.862 31.8883 319.995 31.7536L321.282 30.4343C321.35 30.3651 321.388 30.2712 321.387 30.1737C321.386 30.0761 321.346 29.9831 321.277 29.9153C318.213 27.0244 313.469 27.0244 310.405 29.9153C310.336 29.9831 310.296 30.0762 310.295 30.1738C310.294 30.2714 310.332 30.3652 310.4 30.4343L311.687 31.7536C311.82 31.8883 312.034 31.8912 312.17 31.76C313.175 30.8365 314.483 30.3248 315.84 30.3243ZM318.364 33.1178C318.366 33.2232 318.329 33.3247 318.262 33.3985L316.085 35.8533C316.021 35.9254 315.934 35.966 315.843 35.966C315.753 35.966 315.666 35.9254 315.602 35.8533L313.425 33.3985C313.358 33.3247 313.321 33.2231 313.323 33.1177C313.325 33.0124 313.365 32.9126 313.435 32.842C314.825 31.5281 316.861 31.5281 318.251 32.842C318.321 32.9127 318.362 33.0125 318.364 33.1178Z" fill="#121212"/>
<path fill-rule="evenodd" clip-rule="evenodd" d="M299.773 24.6819C299.773 24.0488 299.295 23.5356 298.706 23.5356H297.639C297.05 23.5356 296.573 24.0488 296.573 24.6819V34.6158C296.573 35.2489 297.05 35.7621 297.639 35.7621H298.706C299.295 35.7621 299.773 35.2489 299.773 34.6158V24.6819ZM292.338 25.9809H293.405C293.994 25.9809 294.472 26.5064 294.472 27.1547V34.5883C294.472 35.2366 293.994 35.7621 293.405 35.7621H292.338C291.749 35.7621 291.272 35.2366 291.272 34.5883V27.1547C291.272 26.5064 291.749 25.9809 292.338 25.9809ZM288.007 28.63H286.94C286.351 28.63 285.873 29.1622 285.873 29.8187V34.5734C285.873 35.2299 286.351 35.762 286.94 35.762H288.007C288.596 35.762 289.073 35.2299 289.073 34.5734V29.8187C289.073 29.1622 288.596 28.63 288.007 28.63ZM282.706 31.0753H281.639C281.05 31.0753 280.573 31.5999 280.573 32.247V34.5904C280.573 35.2375 281.05 35.7621 281.639 35.7621H282.706C283.295 35.7621 283.773 35.2375 283.773 34.5904V32.247C283.773 31.5999 283.295 31.0753 282.706 31.0753Z" fill="#121212"/>
<path fill-rule="evenodd" clip-rule="evenodd" d="M37.1249 74.8959C36.8143 75.3102 36.2267 75.3941 35.8124 75.0834C32.9638 72.947 30.5567 70.278 28.7247 67.2247L28.2794 66.4824C28.1012 66.1856 28.1012 65.8147 28.2794 65.5178L28.7247 64.7755C30.5567 61.7222 32.9638 59.0533 35.8124 56.9168C36.2267 56.6061 36.8143 56.6901 37.1249 57.1043C37.4356 57.5185 37.3517 58.1061 36.9374 58.4168C34.2828 60.4077 32.0397 62.8948 30.3325 65.7402L30.1766 66.0001L30.3325 66.26C32.0397 69.1054 34.2828 71.5925 36.9374 73.5834C37.3517 73.8941 37.4356 74.4817 37.1249 74.8959Z" fill="#2E2E31"/>
<path d="M29.13 106.514C30.89 106.514 32.276 105.656 33.156 104.402L35.62 106.294C34.212 108.208 31.924 109.44 29.13 109.44C24.268 109.44 20.946 105.7 20.946 101.3C20.946 96.9 24.268 93.16 29.13 93.16C31.924 93.16 34.212 94.414 35.62 96.284L33.156 98.198C32.276 96.944 30.89 96.086 29.13 96.086C26.226 96.086 24.158 98.352 24.158 101.3C24.158 104.248 26.226 106.514 29.13 106.514ZM40.8663 109.33C38.6443 109.33 37.1263 108.054 37.1263 106.008C37.1263 104.336 38.4243 103.082 40.8003 102.686L44.1883 102.114V101.828C44.1883 100.662 43.3083 99.914 42.0323 99.914C40.9543 99.914 40.1183 100.42 39.5243 101.234L37.4783 99.672C38.4683 98.308 40.0963 97.472 42.1203 97.472C45.3323 97.472 46.9823 99.386 46.9823 101.828V109H44.1883V107.922C43.4843 108.78 42.1643 109.33 40.8663 109.33ZM39.8983 105.876C39.8983 106.624 40.4923 107.108 41.4383 107.108C42.7143 107.108 43.6383 106.514 44.1883 105.634V104.072L41.5483 104.512C40.3823 104.71 39.8983 105.194 39.8983 105.876ZM50.1818 109V97.912H52.9758V98.792C53.7458 98.044 54.7798 97.472 56.2538 97.472C58.6518 97.472 60.5658 99.122 60.5658 102.4V109H57.7498V102.51C57.7498 101.036 56.9138 100.112 55.5498 100.112C54.1418 100.112 53.3938 101.058 52.9758 101.762V109H50.1818ZM62.9464 103.456C62.9464 100.222 65.0804 97.472 68.5784 97.472C70.0744 97.472 71.1524 97.934 72.0104 98.792V92.5H74.8264V109H72.0104V108.12C71.1524 108.978 70.0744 109.44 68.5784 109.44C65.0804 109.44 62.9464 106.69 62.9464 103.456ZM65.8724 103.456C65.8724 105.392 67.0824 106.8 68.9744 106.8C70.2284 106.8 71.2624 106.272 72.0104 105.26V101.652C71.2624 100.64 70.2284 100.112 68.9744 100.112C67.0824 100.112 65.8724 101.52 65.8724 103.456ZM79.5839 95.976C78.5939 95.976 77.7579 95.14 77.7579 94.15C77.7579 93.16 78.5939 92.324 79.5839 92.324C80.5739 92.324 81.3879 93.16 81.3879 94.15C81.3879 95.14 80.5739 95.976 79.5839 95.976ZM78.1759 109V97.912H80.9699V109H78.1759ZM83.5284 103.456C83.5284 100.222 85.6624 97.472 89.1604 97.472C90.6564 97.472 91.7344 97.934 92.5924 98.792V92.5H95.4084V109H92.5924V108.12C91.7344 108.978 90.6564 109.44 89.1604 109.44C85.6624 109.44 83.5284 106.69 83.5284 103.456ZM86.4544 103.456C86.4544 105.392 87.6644 106.8 89.5564 106.8C90.8104 106.8 91.8444 106.272 92.5924 105.26V101.652C91.8444 100.64 90.8104 100.112 89.5564 100.112C87.6644 100.112 86.4544 101.52 86.4544 103.456ZM101.882 109.33C99.6599 109.33 98.1419 108.054 98.1419 106.008C98.1419 104.336 99.4399 103.082 101.816 102.686L105.204 102.114V101.828C105.204 100.662 104.324 99.914 103.048 99.914C101.97 99.914 101.134 100.42 100.54 101.234L98.4939 99.672C99.4839 98.308 101.112 97.472 103.136 97.472C106.348 97.472 107.998 99.386 107.998 101.828V109H105.204V107.922C104.5 108.78 103.18 109.33 101.882 109.33ZM100.914 105.876C100.914 106.624 101.508 107.108 102.454 107.108C103.73 107.108 104.654 106.514 105.204 105.634V104.072L102.564 104.512C101.398 104.71 100.914 105.194 100.914 105.876ZM111.901 104.952V100.42H109.833V97.912H111.901V95.14H114.717V97.912H118.105V100.42H114.717V104.952C114.717 106.184 115.377 106.668 116.477 106.668C117.247 106.668 117.753 106.58 118.127 106.426V108.868C117.577 109.11 116.917 109.22 115.993 109.22C113.221 109.22 111.901 107.658 111.901 104.952ZM119.64 107.394L121.488 105.722C122.17 106.58 122.984 107.196 124.04 107.196C124.942 107.196 125.404 106.668 125.404 106.008C125.404 104.072 120.102 104.798 120.102 100.904C120.102 98.946 121.752 97.472 124.062 97.472C125.756 97.472 127.296 98.286 128.088 99.364L126.24 100.992C125.668 100.288 124.942 99.716 124.084 99.716C123.204 99.716 122.786 100.2 122.786 100.772C122.786 102.664 128.088 102.004 128.088 105.832C128.044 108.164 126.174 109.44 124.084 109.44C122.104 109.44 120.696 108.648 119.64 107.394ZM135.624 107.394L137.472 105.722C138.154 106.58 138.968 107.196 140.024 107.196C140.926 107.196 141.388 106.668 141.388 106.008C141.388 104.072 136.086 104.798 136.086 100.904C136.086 98.946 137.736 97.472 140.046 97.472C141.74 97.472 143.28 98.286 144.072 99.364L142.224 100.992C141.652 100.288 140.926 99.716 140.068 99.716C139.188 99.716 138.77 100.2 138.77 100.772C138.77 102.664 144.072 102.004 144.072 105.832C144.028 108.164 142.158 109.44 140.068 109.44C138.088 109.44 136.68 108.648 135.624 107.394ZM149.685 109.33C147.463 109.33 145.945 108.054 145.945 106.008C145.945 104.336 147.243 103.082 149.619 102.686L153.007 102.114V101.828C153.007 100.662 152.127 99.914 150.851 99.914C149.773 99.914 148.937 100.42 148.343 101.234L146.297 99.672C147.287 98.308 148.915 97.472 150.939 97.472C154.151 97.472 155.801 99.386 155.801 101.828V109H153.007V107.922C152.303 108.78 150.983 109.33 149.685 109.33ZM148.717 105.876C148.717 106.624 149.311 107.108 150.257 107.108C151.533 107.108 152.457 106.514 153.007 105.634V104.072L150.367 104.512C149.201 104.71 148.717 105.194 148.717 105.876ZM159 109V97.912H161.794V98.792C162.564 98.044 163.598 97.472 165.072 97.472C167.47 97.472 169.384 99.122 169.384 102.4V109H166.568V102.51C166.568 101.036 165.732 100.112 164.368 100.112C162.96 100.112 162.212 101.058 161.794 101.762V109H159ZM171.589 107.394L173.437 105.722C174.119 106.58 174.933 107.196 175.989 107.196C176.891 107.196 177.353 106.668 177.353 106.008C177.353 104.072 172.051 104.798 172.051 100.904C172.051 98.946 173.701 97.472 176.011 97.472C177.705 97.472 179.245 98.286 180.037 99.364L178.189 100.992C177.617 100.288 176.891 99.716 176.033 99.716C175.153 99.716 174.735 100.2 174.735 100.772C174.735 102.664 180.037 102.004 180.037 105.832C179.993 108.164 178.123 109.44 176.033 109.44C174.053 109.44 172.645 108.648 171.589 107.394ZM189.135 109V93.6H193.843C197.231 93.6 199.321 95.338 199.321 98.198C199.321 100.068 198.419 101.454 196.835 102.18L201.653 109H197.979L193.865 102.774H192.259V109H189.135ZM194.019 96.196H192.259V100.178H194.019C195.339 100.178 196.109 99.408 196.109 98.154C196.109 96.988 195.339 96.196 194.019 96.196ZM203.852 109V93.6H209.902C214.786 93.6 218.086 97.142 218.086 101.3C218.086 105.458 214.786 109 209.902 109H203.852ZM209.946 96.438H206.976V106.162H209.946C212.806 106.162 214.874 104.028 214.874 101.3C214.874 98.55 212.806 96.438 209.946 96.438ZM219.039 93.6H222.361L226.915 105.634L231.469 93.6H234.791L228.961 109H224.869L219.039 93.6Z" fill="#2E2E31"/>
<rect width="350" height="77" transform="translate(20.0001 144)" fill="white"/>
<path d="M41.4251 176C41.3151 176 41.2251 175.965 41.1551 175.895C41.0851 175.825 41.0501 175.735 41.0501 175.625V165.875C41.0501 165.765 41.0851 165.675 41.1551 165.605C41.2251 165.535 41.3151 165.5 41.4251 165.5H46.0001C46.8601 165.5 47.5651 165.62 48.1151 165.86C48.6651 166.1 49.0701 166.445 49.3301 166.895C49.6001 167.335 49.7351 167.86 49.7351 168.47C49.7351 168.83 49.6651 169.15 49.5251 169.43C49.3951 169.7 49.2301 169.925 49.0301 170.105C48.8401 170.285 48.6601 170.415 48.4901 170.495C48.8701 170.675 49.2051 170.97 49.4951 171.38C49.7951 171.79 49.9451 172.27 49.9451 172.82C49.9451 173.48 49.7951 174.05 49.4951 174.53C49.2051 175 48.7751 175.365 48.2051 175.625C47.6451 175.875 46.9551 176 46.1351 176H41.4251ZM43.7351 174.05H45.8351C46.2651 174.05 46.5901 173.925 46.8101 173.675C47.0301 173.425 47.1401 173.14 47.1401 172.82C47.1401 172.47 47.0251 172.175 46.7951 171.935C46.5751 171.695 46.2551 171.575 45.8351 171.575H43.7351V174.05ZM43.7351 169.67H45.7001C46.1101 169.67 46.4151 169.565 46.6151 169.355C46.8251 169.145 46.9301 168.875 46.9301 168.545C46.9301 168.225 46.8251 167.965 46.6151 167.765C46.4151 167.555 46.1101 167.45 45.7001 167.45H43.7351V169.67ZM51.9866 176C51.8766 176 51.7866 175.965 51.7166 175.895C51.6466 175.825 51.6116 175.735 51.6116 175.625V165.875C51.6116 165.765 51.6466 165.675 51.7166 165.605C51.7866 165.535 51.8766 165.5 51.9866 165.5H58.9916C59.1016 165.5 59.1916 165.535 59.2616 165.605C59.3316 165.675 59.3666 165.765 59.3666 165.875V167.285C59.3666 167.395 59.3316 167.485 59.2616 167.555C59.1916 167.625 59.1016 167.66 58.9916 167.66H54.2066V169.685H58.6616C58.7716 169.685 58.8616 169.725 58.9316 169.805C59.0016 169.875 59.0366 169.965 59.0366 170.075V171.38C59.0366 171.48 59.0016 171.57 58.9316 171.65C58.8616 171.72 58.7716 171.755 58.6616 171.755H54.2066V173.84H59.1116C59.2216 173.84 59.3116 173.875 59.3816 173.945C59.4516 174.015 59.4866 174.105 59.4866 174.215V175.625C59.4866 175.735 59.4516 175.825 59.3816 175.895C59.3116 175.965 59.2216 176 59.1116 176H51.9866ZM61.5667 176C61.4567 176 61.3667 175.965 61.2967 175.895C61.2267 175.825 61.1917 175.735 61.1917 175.625V165.875C61.1917 165.765 61.2267 165.675 61.2967 165.605C61.3667 165.535 61.4567 165.5 61.5667 165.5H65.6467C66.9367 165.5 67.9517 165.8 68.6917 166.4C69.4417 166.99 69.8167 167.83 69.8167 168.92C69.8167 169.63 69.6417 170.23 69.2917 170.72C68.9517 171.21 68.5017 171.58 67.9417 171.83L70.0117 175.52C70.0417 175.58 70.0567 175.635 70.0567 175.685C70.0567 175.765 70.0217 175.84 69.9517 175.91C69.8917 175.97 69.8167 176 69.7267 176H67.7467C67.5567 176 67.4167 175.955 67.3267 175.865C67.2367 175.765 67.1717 175.675 67.1317 175.595L65.4217 172.295H63.8767V175.625C63.8767 175.735 63.8417 175.825 63.7717 175.895C63.7017 175.965 63.6117 176 63.5017 176H61.5667ZM63.8767 170.18H65.6167C66.0867 170.18 66.4367 170.065 66.6667 169.835C66.9067 169.605 67.0267 169.29 67.0267 168.89C67.0267 168.5 66.9117 168.185 66.6817 167.945C66.4617 167.705 66.1067 167.585 65.6167 167.585H63.8767V170.18ZM71.9378 176C71.8278 176 71.7378 175.965 71.6678 175.895C71.5978 175.825 71.5628 175.735 71.5628 175.625V165.875C71.5628 165.765 71.5978 165.675 71.6678 165.605C71.7378 165.535 71.8278 165.5 71.9378 165.5H73.5278C73.6978 165.5 73.8178 165.54 73.8878 165.62C73.9678 165.69 74.0178 165.745 74.0378 165.785L77.6978 171.56V165.875C77.6978 165.765 77.7328 165.675 77.8028 165.605C77.8728 165.535 77.9628 165.5 78.0728 165.5H79.8728C79.9828 165.5 80.0728 165.535 80.1428 165.605C80.2128 165.675 80.2478 165.765 80.2478 165.875V175.625C80.2478 175.725 80.2128 175.815 80.1428 175.895C80.0728 175.965 79.9828 176 79.8728 176H78.2678C78.1078 176 77.9878 175.96 77.9078 175.88C77.8378 175.8 77.7928 175.745 77.7728 175.715L74.1128 170.165V175.625C74.1128 175.735 74.0778 175.825 74.0078 175.895C73.9378 175.965 73.8478 176 73.7378 176H71.9378ZM81.7441 176C81.6641 176 81.5891 175.97 81.5191 175.91C81.4591 175.84 81.4291 175.765 81.4291 175.685C81.4291 175.635 81.4341 175.59 81.4441 175.55L84.9691 165.92C84.9991 165.81 85.0591 165.715 85.1491 165.635C85.2491 165.545 85.3841 165.5 85.5541 165.5H87.7741C87.9441 165.5 88.0741 165.545 88.1641 165.635C88.2641 165.715 88.3291 165.81 88.3591 165.92L91.8691 175.55C91.8891 175.59 91.8991 175.635 91.8991 175.685C91.8991 175.765 91.8641 175.84 91.7941 175.91C91.7341 175.97 91.6591 176 91.5691 176H89.7241C89.5741 176 89.4591 175.965 89.3791 175.895C89.3091 175.815 89.2641 175.745 89.2441 175.685L88.6591 174.155H84.6541L84.0841 175.685C84.0641 175.745 84.0191 175.815 83.9491 175.895C83.8791 175.965 83.7591 176 83.5891 176H81.7441ZM85.2691 171.995H88.0591L86.6491 168.035L85.2691 171.995ZM93.4564 176C93.3464 176 93.2564 175.965 93.1864 175.895C93.1164 175.825 93.0814 175.735 93.0814 175.625V165.875C93.0814 165.765 93.1164 165.675 93.1864 165.605C93.2564 165.535 93.3464 165.5 93.4564 165.5H97.5364C98.8264 165.5 99.8414 165.8 100.581 166.4C101.331 166.99 101.706 167.83 101.706 168.92C101.706 169.63 101.531 170.23 101.181 170.72C100.841 171.21 100.391 171.58 99.8314 171.83L101.901 175.52C101.931 175.58 101.946 175.635 101.946 175.685C101.946 175.765 101.911 175.84 101.841 175.91C101.781 175.97 101.706 176 101.616 176H99.6364C99.4464 176 99.3064 175.955 99.2164 175.865C99.1264 175.765 99.0614 175.675 99.0214 175.595L97.3114 172.295H95.7664V175.625C95.7664 175.735 95.7314 175.825 95.6614 175.895C95.5914 175.965 95.5014 176 95.3914 176H93.4564ZM95.7664 170.18H97.5064C97.9764 170.18 98.3264 170.065 98.5564 169.835C98.7964 169.605 98.9164 169.29 98.9164 168.89C98.9164 168.5 98.8014 168.185 98.5714 167.945C98.3514 167.705 97.9964 167.585 97.5064 167.585H95.7664V170.18ZM103.827 176C103.717 176 103.627 175.965 103.557 175.895C103.487 175.825 103.452 175.735 103.452 175.625V165.875C103.452 165.765 103.487 165.675 103.557 165.605C103.627 165.535 103.717 165.5 103.827 165.5H107.727C108.707 165.5 109.542 165.66 110.232 165.98C110.922 166.29 111.452 166.75 111.822 167.36C112.192 167.96 112.392 168.705 112.422 169.595C112.432 170.035 112.437 170.42 112.437 170.75C112.437 171.08 112.432 171.46 112.422 171.89C112.382 172.82 112.182 173.59 111.822 174.2C111.472 174.81 110.957 175.265 110.277 175.565C109.607 175.855 108.782 176 107.802 176H103.827ZM106.137 173.84H107.727C108.157 173.84 108.512 173.775 108.792 173.645C109.082 173.505 109.297 173.29 109.437 173C109.587 172.71 109.667 172.33 109.677 171.86C109.697 171.57 109.707 171.31 109.707 171.08C109.717 170.85 109.717 170.62 109.707 170.39C109.707 170.16 109.697 169.905 109.677 169.625C109.657 168.945 109.477 168.45 109.137 168.14C108.807 167.82 108.312 167.66 107.652 167.66H106.137V173.84ZM117.758 176C117.648 176 117.558 175.965 117.488 175.895C117.418 175.825 117.383 175.735 117.383 175.625V165.875C117.383 165.765 117.418 165.675 117.488 165.605C117.558 165.535 117.648 165.5 117.758 165.5H122.333C123.193 165.5 123.898 165.62 124.448 165.86C124.998 166.1 125.403 166.445 125.663 166.895C125.933 167.335 126.068 167.86 126.068 168.47C126.068 168.83 125.998 169.15 125.858 169.43C125.728 169.7 125.563 169.925 125.363 170.105C125.173 170.285 124.993 170.415 124.823 170.495C125.203 170.675 125.538 170.97 125.828 171.38C126.128 171.79 126.278 172.27 126.278 172.82C126.278 173.48 126.128 174.05 125.828 174.53C125.538 175 125.108 175.365 124.538 175.625C123.978 175.875 123.288 176 122.468 176H117.758ZM120.068 174.05H122.168C122.598 174.05 122.923 173.925 123.143 173.675C123.363 173.425 123.473 173.14 123.473 172.82C123.473 172.47 123.358 172.175 123.128 171.935C122.908 171.695 122.588 171.575 122.168 171.575H120.068V174.05ZM120.068 169.67H122.033C122.443 169.67 122.748 169.565 122.948 169.355C123.158 169.145 123.263 168.875 123.263 168.545C123.263 168.225 123.158 167.965 122.948 167.765C122.748 167.555 122.443 167.45 122.033 167.45H120.068V169.67ZM128.32 176C128.21 176 128.12 175.965 128.05 175.895C127.98 175.825 127.945 175.735 127.945 175.625V165.875C127.945 165.765 127.98 165.675 128.05 165.605C128.12 165.535 128.21 165.5 128.32 165.5H135.325C135.435 165.5 135.525 165.535 135.595 165.605C135.665 165.675 135.7 165.765 135.7 165.875V167.285C135.7 167.395 135.665 167.485 135.595 167.555C135.525 167.625 135.435 167.66 135.325 167.66H130.54V169.685H134.995C135.105 169.685 135.195 169.725 135.265 169.805C135.335 169.875 135.37 169.965 135.37 170.075V171.38C135.37 171.48 135.335 171.57 135.265 171.65C135.195 171.72 135.105 171.755 134.995 171.755H130.54V173.84H135.445C135.555 173.84 135.645 173.875 135.715 173.945C135.785 174.015 135.82 174.105 135.82 174.215V175.625C135.82 175.735 135.785 175.825 135.715 175.895C135.645 175.965 135.555 176 135.445 176H128.32ZM137.9 176C137.79 176 137.7 175.965 137.63 175.895C137.56 175.825 137.525 175.735 137.525 175.625V165.875C137.525 165.765 137.56 165.675 137.63 165.605C137.7 165.535 137.79 165.5 137.9 165.5H141.98C143.27 165.5 144.285 165.8 145.025 166.4C145.775 166.99 146.15 167.83 146.15 168.92C146.15 169.63 145.975 170.23 145.625 170.72C145.285 171.21 144.835 171.58 144.275 171.83L146.345 175.52C146.375 175.58 146.39 175.635 146.39 175.685C146.39 175.765 146.355 175.84 146.285 175.91C146.225 175.97 146.15 176 146.06 176H144.08C143.89 176 143.75 175.955 143.66 175.865C143.57 175.765 143.505 175.675 143.465 175.595L141.755 172.295H140.21V175.625C140.21 175.735 140.175 175.825 140.105 175.895C140.035 175.965 139.945 176 139.835 176H137.9ZM140.21 170.18H141.95C142.42 170.18 142.77 170.065 143 169.835C143.24 169.605 143.36 169.29 143.36 168.89C143.36 168.5 143.245 168.185 143.015 167.945C142.795 167.705 142.44 167.585 141.95 167.585H140.21V170.18ZM148.271 176C148.161 176 148.071 175.965 148.001 175.895C147.931 175.825 147.896 175.735 147.896 175.625V165.875C147.896 165.765 147.931 165.675 148.001 165.605C148.071 165.535 148.161 165.5 148.271 165.5H149.861C150.031 165.5 150.151 165.54 150.221 165.62C150.301 165.69 150.351 165.745 150.371 165.785L154.031 171.56V165.875C154.031 165.765 154.066 165.675 154.136 165.605C154.206 165.535 154.296 165.5 154.406 165.5H156.206C156.316 165.5 156.406 165.535 156.476 165.605C156.546 165.675 156.581 165.765 156.581 165.875V175.625C156.581 175.725 156.546 175.815 156.476 175.895C156.406 175.965 156.316 176 156.206 176H154.601C154.441 176 154.321 175.96 154.241 175.88C154.171 175.8 154.126 175.745 154.106 175.715L150.446 170.165V175.625C150.446 175.735 150.411 175.825 150.341 175.895C150.271 175.965 150.181 176 150.071 176H148.271ZM158.077 176C157.997 176 157.922 175.97 157.852 175.91C157.792 175.84 157.762 175.765 157.762 175.685C157.762 175.635 157.767 175.59 157.777 175.55L161.302 165.92C161.332 165.81 161.392 165.715 161.482 165.635C161.582 165.545 161.717 165.5 161.887 165.5H164.107C164.277 165.5 164.407 165.545 164.497 165.635C164.597 165.715 164.662 165.81 164.692 165.92L168.202 175.55C168.222 175.59 168.232 175.635 168.232 175.685C168.232 175.765 168.197 175.84 168.127 175.91C168.067 175.97 167.992 176 167.902 176H166.057C165.907 176 165.792 175.965 165.712 175.895C165.642 175.815 165.597 175.745 165.577 175.685L164.992 174.155H160.987L160.417 175.685C160.397 175.745 160.352 175.815 160.282 175.895C160.212 175.965 160.092 176 159.922 176H158.077ZM161.602 171.995H164.392L162.982 168.035L161.602 171.995ZM169.789 176C169.679 176 169.589 175.965 169.519 175.895C169.449 175.825 169.414 175.735 169.414 175.625V165.875C169.414 165.765 169.449 165.675 169.519 165.605C169.589 165.535 169.679 165.5 169.789 165.5H173.869C175.159 165.5 176.174 165.8 176.914 166.4C177.664 166.99 178.039 167.83 178.039 168.92C178.039 169.63 177.864 170.23 177.514 170.72C177.174 171.21 176.724 171.58 176.164 171.83L178.234 175.52C178.264 175.58 178.279 175.635 178.279 175.685C178.279 175.765 178.244 175.84 178.174 175.91C178.114 175.97 178.039 176 177.949 176H175.969C175.779 176 175.639 175.955 175.549 175.865C175.459 175.765 175.394 175.675 175.354 175.595L173.644 172.295H172.099V175.625C172.099 175.735 172.064 175.825 171.994 175.895C171.924 175.965 171.834 176 171.724 176H169.789ZM172.099 170.18H173.839C174.309 170.18 174.659 170.065 174.889 169.835C175.129 169.605 175.249 169.29 175.249 168.89C175.249 168.5 175.134 168.185 174.904 167.945C174.684 167.705 174.329 167.585 173.839 167.585H172.099V170.18ZM180.16 176C180.05 176 179.96 175.965 179.89 175.895C179.82 175.825 179.785 175.735 179.785 175.625V165.875C179.785 165.765 179.82 165.675 179.89 165.605C179.96 165.535 180.05 165.5 180.16 165.5H184.06C185.04 165.5 185.875 165.66 186.565 165.98C187.255 166.29 187.785 166.75 188.155 167.36C188.525 167.96 188.725 168.705 188.755 169.595C188.765 170.035 188.77 170.42 188.77 170.75C188.77 171.08 188.765 171.46 188.755 171.89C188.715 172.82 188.515 173.59 188.155 174.2C187.805 174.81 187.29 175.265 186.61 175.565C185.94 175.855 185.115 176 184.135 176H180.16ZM182.47 173.84H184.06C184.49 173.84 184.845 173.775 185.125 173.645C185.415 173.505 185.63 173.29 185.77 173C185.92 172.71 186 172.33 186.01 171.86C186.03 171.57 186.04 171.31 186.04 171.08C186.05 170.85 186.05 170.62 186.04 170.39C186.04 170.16 186.03 169.905 186.01 169.625C185.99 168.945 185.81 168.45 185.47 168.14C185.14 167.82 184.645 167.66 183.985 167.66H182.47V173.84ZM43.2626 199C43.1826 199 43.1076 198.97 43.0376 198.91C42.9776 198.84 42.9476 198.765 42.9476 198.685C42.9476 198.635 42.9526 198.59 42.9626 198.55L46.4876 188.92C46.5176 188.81 46.5776 188.715 46.6676 188.635C46.7676 188.545 46.9026 188.5 47.0726 188.5H49.2926C49.4626 188.5 49.5926 188.545 49.6826 188.635C49.7826 188.715 49.8476 188.81 49.8776 188.92L53.3876 198.55C53.4076 198.59 53.4176 198.635 53.4176 198.685C53.4176 198.765 53.3826 198.84 53.3126 198.91C53.2526 198.97 53.1776 199 53.0876 199H51.2426C51.0926 199 50.9776 198.965 50.8976 198.895C50.8276 198.815 50.7826 198.745 50.7626 198.685L50.1776 197.155H46.1726L45.6026 198.685C45.5826 198.745 45.5376 198.815 45.4676 198.895C45.3976 198.965 45.2776 199 45.1076 199H43.2626ZM46.7876 194.995H49.5776L48.1676 191.035L46.7876 194.995ZM54.8099 199C54.6999 199 54.6099 198.965 54.5399 198.895C54.4699 198.825 54.4349 198.735 54.4349 198.625V188.725C54.4349 188.615 54.4699 188.525 54.5399 188.455C54.6099 188.385 54.6999 188.35 54.8099 188.35H56.5799C56.6899 188.35 56.7799 188.385 56.8499 188.455C56.9199 188.525 56.9549 188.615 56.9549 188.725V198.625C56.9549 198.735 56.9199 198.825 56.8499 198.895C56.7799 198.965 56.6899 199 56.5799 199H54.8099ZM59.1019 199C58.9919 199 58.9019 198.965 58.8319 198.895C58.7619 198.825 58.7269 198.735 58.7269 198.625V191.575C58.7269 191.465 58.7619 191.375 58.8319 191.305C58.9019 191.235 58.9919 191.2 59.1019 191.2H60.8719C60.9719 191.2 61.0569 191.235 61.1269 191.305C61.2069 191.375 61.2469 191.465 61.2469 191.575V198.625C61.2469 198.735 61.2069 198.825 61.1269 198.895C61.0569 198.965 60.9719 199 60.8719 199H59.1019ZM59.0869 190.075C58.9769 190.075 58.8869 190.04 58.8169 189.97C58.7469 189.9 58.7119 189.81 58.7119 189.7V188.365C58.7119 188.255 58.7469 188.165 58.8169 188.095C58.8869 188.015 58.9769 187.975 59.0869 187.975H60.8719C60.9819 187.975 61.0719 188.015 61.1419 188.095C61.2219 188.165 61.2619 188.255 61.2619 188.365V189.7C61.2619 189.81 61.2219 189.9 61.1419 189.97C61.0719 190.04 60.9819 190.075 60.8719 190.075H59.0869ZM66.5893 199.15C65.8493 199.15 65.1943 199.015 64.6243 198.745C64.0543 198.475 63.5993 198.085 63.2593 197.575C62.9293 197.055 62.7493 196.435 62.7193 195.715C62.7093 195.555 62.7043 195.355 62.7043 195.115C62.7043 194.865 62.7093 194.66 62.7193 194.5C62.7493 193.77 62.9293 193.15 63.2593 192.64C63.5893 192.12 64.0393 191.725 64.6093 191.455C65.1893 191.185 65.8493 191.05 66.5893 191.05C67.2793 191.05 67.8693 191.15 68.3593 191.35C68.8493 191.54 69.2493 191.78 69.5593 192.07C69.8693 192.36 70.0993 192.66 70.2493 192.97C70.4093 193.27 70.4943 193.535 70.5043 193.765C70.5143 193.865 70.4793 193.955 70.3993 194.035C70.3193 194.105 70.2293 194.14 70.1293 194.14H68.2243C68.1143 194.14 68.0293 194.115 67.9693 194.065C67.9093 194.015 67.8543 193.94 67.8043 193.84C67.6843 193.53 67.5293 193.31 67.3393 193.18C67.1593 193.05 66.9243 192.985 66.6343 192.985C66.2343 192.985 65.9243 193.115 65.7043 193.375C65.4943 193.635 65.3793 194.035 65.3593 194.575C65.3493 194.975 65.3493 195.33 65.3593 195.64C65.3793 196.19 65.4943 196.59 65.7043 196.84C65.9243 197.09 66.2343 197.215 66.6343 197.215C66.9443 197.215 67.1893 197.15 67.3693 197.02C67.5493 196.89 67.6943 196.67 67.8043 196.36C67.8543 196.26 67.9093 196.185 67.9693 196.135C68.0293 196.085 68.1143 196.06 68.2243 196.06H70.1293C70.2293 196.06 70.3193 196.1 70.3993 196.18C70.4793 196.25 70.5143 196.335 70.5043 196.435C70.4943 196.605 70.4443 196.805 70.3543 197.035C70.2643 197.255 70.1243 197.49 69.9343 197.74C69.7443 197.99 69.4943 198.225 69.1843 198.445C68.8843 198.655 68.5193 198.825 68.0893 198.955C67.6593 199.085 67.1593 199.15 66.5893 199.15ZM75.4519 199.15C74.2719 199.15 73.3319 198.83 72.6319 198.19C71.9319 197.55 71.5669 196.6 71.5369 195.34C71.5369 195.27 71.5369 195.18 71.5369 195.07C71.5369 194.96 71.5369 194.875 71.5369 194.815C71.5669 194.025 71.7419 193.35 72.0619 192.79C72.3919 192.22 72.8419 191.79 73.4119 191.5C73.9919 191.2 74.6669 191.05 75.4369 191.05C76.3169 191.05 77.0419 191.225 77.6119 191.575C78.1919 191.925 78.6269 192.4 78.9169 193C79.2069 193.6 79.3519 194.285 79.3519 195.055V195.415C79.3519 195.525 79.3119 195.615 79.2319 195.685C79.1619 195.755 79.0769 195.79 78.9769 195.79H74.1769C74.1769 195.8 74.1769 195.815 74.1769 195.835C74.1769 195.855 74.1769 195.875 74.1769 195.895C74.1869 196.185 74.2369 196.45 74.3269 196.69C74.4169 196.93 74.5569 197.12 74.7469 197.26C74.9369 197.4 75.1669 197.47 75.4369 197.47C75.6369 197.47 75.8019 197.44 75.9319 197.38C76.0719 197.31 76.1869 197.235 76.2769 197.155C76.3669 197.065 76.4369 196.99 76.4869 196.93C76.5769 196.83 76.6469 196.77 76.6969 196.75C76.7569 196.72 76.8469 196.705 76.9669 196.705H78.8269C78.9269 196.705 79.0069 196.735 79.0669 196.795C79.1369 196.845 79.1669 196.92 79.1569 197.02C79.1469 197.19 79.0619 197.395 78.9019 197.635C78.7419 197.875 78.5069 198.115 78.1969 198.355C77.8969 198.585 77.5169 198.775 77.0569 198.925C76.5969 199.075 76.0619 199.15 75.4519 199.15ZM74.1769 194.305H76.7119V194.275C76.7119 193.955 76.6619 193.675 76.5619 193.435C76.4719 193.195 76.3269 193.01 76.1269 192.88C75.9369 192.75 75.7069 192.685 75.4369 192.685C75.1669 192.685 74.9369 192.75 74.7469 192.88C74.5669 193.01 74.4269 193.195 74.3269 193.435C74.2269 193.675 74.1769 193.955 74.1769 194.275V194.305Z" fill="#2E2E31"/>
<path d="M334.5 167C343.06 167 350 173.94 350 182.5C350 191.06 343.06 198 334.5 198C325.94 198 319 191.06 319 182.5C319 173.94 325.94 167 334.5 167Z" fill="#4833E3"/>
<path fill-rule="evenodd" clip-rule="evenodd" d="M331.388 174.035C331.959 174.142 332.482 174.48 332.989 174.993L333.435 175.444L333.436 175.445L333.436 175.445L333.885 175.899C334.49 176.51 334.803 177.127 334.914 177.708C335.022 178.273 334.928 178.75 334.799 179.085C334.715 179.328 334.575 179.532 334.477 179.67C334.444 179.717 334.414 179.759 334.386 179.797C334.313 179.899 334.256 179.979 334.198 180.075C334.071 180.287 334.007 180.48 334.08 180.778C334.172 181.148 334.483 181.67 334.933 182.136C335.392 182.61 335.859 182.885 336.166 182.937C336.697 183.027 336.962 182.836 337.338 182.566C337.468 182.472 337.611 182.369 337.783 182.265C338.112 182.066 338.562 181.908 339.077 181.944C339.607 181.981 340.137 182.218 340.609 182.696L341.954 184.055C342.456 184.563 342.804 185.089 342.939 185.645C343.078 186.216 342.974 186.746 342.71 187.204C341.383 189.875 339.053 190.316 337.595 189.825C332.115 187.978 329.149 184.594 327.286 179.901C326.672 178.613 326.844 175.941 329.858 174.316C330.288 174.084 330.802 173.926 331.388 174.035Z" fill="white"/>
<rect width="350" height="77" transform="translate(20.0001 225)" fill="white"/>
<path d="M41.4251 257C41.3151 257 41.2251 256.965 41.1551 256.895C41.0851 256.825 41.0501 256.735 41.0501 256.625V246.875C41.0501 246.765 41.0851 246.675 41.1551 246.605C41.2251 246.535 41.3151 246.5 41.4251 246.5H46.0001C46.8601 246.5 47.5651 246.62 48.1151 246.86C48.6651 247.1 49.0701 247.445 49.3301 247.895C49.6001 248.335 49.7351 248.86 49.7351 249.47C49.7351 249.83 49.6651 250.15 49.5251 250.43C49.3951 250.7 49.2301 250.925 49.0301 251.105C48.8401 251.285 48.6601 251.415 48.4901 251.495C48.8701 251.675 49.2051 251.97 49.4951 252.38C49.7951 252.79 49.9451 253.27 49.9451 253.82C49.9451 254.48 49.7951 255.05 49.4951 255.53C49.2051 256 48.7751 256.365 48.2051 256.625C47.6451 256.875 46.9551 257 46.1351 257H41.4251ZM43.7351 255.05H45.8351C46.2651 255.05 46.5901 254.925 46.8101 254.675C47.0301 254.425 47.1401 254.14 47.1401 253.82C47.1401 253.47 47.0251 253.175 46.7951 252.935C46.5751 252.695 46.2551 252.575 45.8351 252.575H43.7351V255.05ZM43.7351 250.67H45.7001C46.1101 250.67 46.4151 250.565 46.6151 250.355C46.8251 250.145 46.9301 249.875 46.9301 249.545C46.9301 249.225 46.8251 248.965 46.6151 248.765C46.4151 248.555 46.1101 248.45 45.7001 248.45H43.7351V250.67ZM51.9866 257C51.8766 257 51.7866 256.965 51.7166 256.895C51.6466 256.825 51.6116 256.735 51.6116 256.625V246.875C51.6116 246.765 51.6466 246.675 51.7166 246.605C51.7866 246.535 51.8766 246.5 51.9866 246.5H58.9916C59.1016 246.5 59.1916 246.535 59.2616 246.605C59.3316 246.675 59.3666 246.765 59.3666 246.875V248.285C59.3666 248.395 59.3316 248.485 59.2616 248.555C59.1916 248.625 59.1016 248.66 58.9916 248.66H54.2066V250.685H58.6616C58.7716 250.685 58.8616 250.725 58.9316 250.805C59.0016 250.875 59.0366 250.965 59.0366 251.075V252.38C59.0366 252.48 59.0016 252.57 58.9316 252.65C58.8616 252.72 58.7716 252.755 58.6616 252.755H54.2066V254.84H59.1116C59.2216 254.84 59.3116 254.875 59.3816 254.945C59.4516 255.015 59.4866 255.105 59.4866 255.215V256.625C59.4866 256.735 59.4516 256.825 59.3816 256.895C59.3116 256.965 59.2216 257 59.1116 257H51.9866ZM61.5667 257C61.4567 257 61.3667 256.965 61.2967 256.895C61.2267 256.825 61.1917 256.735 61.1917 256.625V246.875C61.1917 246.765 61.2267 246.675 61.2967 246.605C61.3667 246.535 61.4567 246.5 61.5667 246.5H65.6467C66.9367 246.5 67.9517 246.8 68.6917 247.4C69.4417 247.99 69.8167 248.83 69.8167 249.92C69.8167 250.63 69.6417 251.23 69.2917 251.72C68.9517 252.21 68.5017 252.58 67.9417 252.83L70.0117 256.52C70.0417 256.58 70.0567 256.635 70.0567 256.685C70.0567 256.765 70.0217 256.84 69.9517 256.91C69.8917 256.97 69.8167 257 69.7267 257H67.7467C67.5567 257 67.4167 256.955 67.3267 256.865C67.2367 256.765 67.1717 256.675 67.1317 256.595L65.4217 253.295H63.8767V256.625C63.8767 256.735 63.8417 256.825 63.7717 256.895C63.7017 256.965 63.6117 257 63.5017 257H61.5667ZM63.8767 251.18H65.6167C66.0867 251.18 66.4367 251.065 66.6667 250.835C66.9067 250.605 67.0267 250.29 67.0267 249.89C67.0267 249.5 66.9117 249.185 66.6817 248.945C66.4617 248.705 66.1067 248.585 65.6167 248.585H63.8767V251.18ZM71.9378 257C71.8278 257 71.7378 256.965 71.6678 256.895C71.5978 256.825 71.5628 256.735 71.5628 256.625V246.875C71.5628 246.765 71.5978 246.675 71.6678 246.605C71.7378 246.535 71.8278 246.5 71.9378 246.5H73.5278C73.6978 246.5 73.8178 246.54 73.8878 246.62C73.9678 246.69 74.0178 246.745 74.0378 246.785L77.6978 252.56V246.875C77.6978 246.765 77.7328 246.675 77.8028 246.605C77.8728 246.535 77.9628 246.5 78.0728 246.5H79.8728C79.9828 246.5 80.0728 246.535 80.1428 246.605C80.2128 246.675 80.2478 246.765 80.2478 246.875V256.625C80.2478 256.725 80.2128 256.815 80.1428 256.895C80.0728 256.965 79.9828 257 79.8728 257H78.2678C78.1078 257 77.9878 256.96 77.9078 256.88C77.8378 256.8 77.7928 256.745 77.7728 256.715L74.1128 251.165V256.625C74.1128 256.735 74.0778 256.825 74.0078 256.895C73.9378 256.965 73.8478 257 73.7378 257H71.9378ZM81.7441 257C81.6641 257 81.5891 256.97 81.5191 256.91C81.4591 256.84 81.4291 256.765 81.4291 256.685C81.4291 256.635 81.4341 256.59 81.4441 256.55L84.9691 246.92C84.9991 246.81 85.0591 246.715 85.1491 246.635C85.2491 246.545 85.3841 246.5 85.5541 246.5H87.7741C87.9441 246.5 88.0741 246.545 88.1641 246.635C88.2641 246.715 88.3291 246.81 88.3591 246.92L91.8691 256.55C91.8891 256.59 91.8991 256.635 91.8991 256.685C91.8991 256.765 91.8641 256.84 91.7941 256.91C91.7341 256.97 91.6591 257 91.5691 257H89.7241C89.5741 257 89.4591 256.965 89.3791 256.895C89.3091 256.815 89.2641 256.745 89.2441 256.685L88.6591 255.155H84.6541L84.0841 256.685C84.0641 256.745 84.0191 256.815 83.9491 256.895C83.8791 256.965 83.7591 257 83.5891 257H81.7441ZM85.2691 252.995H88.0591L86.6491 249.035L85.2691 252.995ZM93.4564 257C93.3464 257 93.2564 256.965 93.1864 256.895C93.1164 256.825 93.0814 256.735 93.0814 256.625V246.875C93.0814 246.765 93.1164 246.675 93.1864 246.605C93.2564 246.535 93.3464 246.5 93.4564 246.5H97.5364C98.8264 246.5 99.8414 246.8 100.581 247.4C101.331 247.99 101.706 248.83 101.706 249.92C101.706 250.63 101.531 251.23 101.181 251.72C100.841 252.21 100.391 252.58 99.8314 252.83L101.901 256.52C101.931 256.58 101.946 256.635 101.946 256.685C101.946 256.765 101.911 256.84 101.841 256.91C101.781 256.97 101.706 257 101.616 257H99.6364C99.4464 257 99.3064 256.955 99.2164 256.865C99.1264 256.765 99.0614 256.675 99.0214 256.595L97.3114 253.295H95.7664V256.625C95.7664 256.735 95.7314 256.825 95.6614 256.895C95.5914 256.965 95.5014 257 95.3914 257H93.4564ZM95.7664 251.18H97.5064C97.9764 251.18 98.3264 251.065 98.5564 250.835C98.7964 250.605 98.9164 250.29 98.9164 249.89C98.9164 249.5 98.8014 249.185 98.5714 248.945C98.3514 248.705 97.9964 248.585 97.5064 248.585H95.7664V251.18ZM103.827 257C103.717 257 103.627 256.965 103.557 256.895C103.487 256.825 103.452 256.735 103.452 256.625V246.875C103.452 246.765 103.487 246.675 103.557 246.605C103.627 246.535 103.717 246.5 103.827 246.5H107.727C108.707 246.5 109.542 246.66 110.232 246.98C110.922 247.29 111.452 247.75 111.822 248.36C112.192 248.96 112.392 249.705 112.422 250.595C112.432 251.035 112.437 251.42 112.437 251.75C112.437 252.08 112.432 252.46 112.422 252.89C112.382 253.82 112.182 254.59 111.822 255.2C111.472 255.81 110.957 256.265 110.277 256.565C109.607 256.855 108.782 257 107.802 257H103.827ZM106.137 254.84H107.727C108.157 254.84 108.512 254.775 108.792 254.645C109.082 254.505 109.297 254.29 109.437 254C109.587 253.71 109.667 253.33 109.677 252.86C109.697 252.57 109.707 252.31 109.707 252.08C109.717 251.85 109.717 251.62 109.707 251.39C109.707 251.16 109.697 250.905 109.677 250.625C109.657 249.945 109.477 249.45 109.137 249.14C108.807 248.82 108.312 248.66 107.652 248.66H106.137V254.84ZM43.2626 280C43.1826 280 43.1076 279.97 43.0376 279.91C42.9776 279.84 42.9476 279.765 42.9476 279.685C42.9476 279.635 42.9526 279.59 42.9626 279.55L46.4876 269.92C46.5176 269.81 46.5776 269.715 46.6676 269.635C46.7676 269.545 46.9026 269.5 47.0726 269.5H49.2926C49.4626 269.5 49.5926 269.545 49.6826 269.635C49.7826 269.715 49.8476 269.81 49.8776 269.92L53.3876 279.55C53.4076 279.59 53.4176 279.635 53.4176 279.685C53.4176 279.765 53.3826 279.84 53.3126 279.91C53.2526 279.97 53.1776 280 53.0876 280H51.2426C51.0926 280 50.9776 279.965 50.8976 279.895C50.8276 279.815 50.7826 279.745 50.7626 279.685L50.1776 278.155H46.1726L45.6026 279.685C45.5826 279.745 45.5376 279.815 45.4676 279.895C45.3976 279.965 45.2776 280 45.1076 280H43.2626ZM46.7876 275.995H49.5776L48.1676 272.035L46.7876 275.995ZM54.8099 280C54.6999 280 54.6099 279.965 54.5399 279.895C54.4699 279.825 54.4349 279.735 54.4349 279.625V269.725C54.4349 269.615 54.4699 269.525 54.5399 269.455C54.6099 269.385 54.6999 269.35 54.8099 269.35H56.5799C56.6899 269.35 56.7799 269.385 56.8499 269.455C56.9199 269.525 56.9549 269.615 56.9549 269.725V279.625C56.9549 279.735 56.9199 279.825 56.8499 279.895C56.7799 279.965 56.6899 280 56.5799 280H54.8099ZM59.1019 280C58.9919 280 58.9019 279.965 58.8319 279.895C58.7619 279.825 58.7269 279.735 58.7269 279.625V272.575C58.7269 272.465 58.7619 272.375 58.8319 272.305C58.9019 272.235 58.9919 272.2 59.1019 272.2H60.8719C60.9719 272.2 61.0569 272.235 61.1269 272.305C61.2069 272.375 61.2469 272.465 61.2469 272.575V279.625C61.2469 279.735 61.2069 279.825 61.1269 279.895C61.0569 279.965 60.9719 280 60.8719 280H59.1019ZM59.0869 271.075C58.9769 271.075 58.8869 271.04 58.8169 270.97C58.7469 270.9 58.7119 270.81 58.7119 270.7V269.365C58.7119 269.255 58.7469 269.165 58.8169 269.095C58.8869 269.015 58.9769 268.975 59.0869 268.975H60.8719C60.9819 268.975 61.0719 269.015 61.1419 269.095C61.2219 269.165 61.2619 269.255 61.2619 269.365V270.7C61.2619 270.81 61.2219 270.9 61.1419 270.97C61.0719 271.04 60.9819 271.075 60.8719 271.075H59.0869ZM66.5893 280.15C65.8493 280.15 65.1943 280.015 64.6243 279.745C64.0543 279.475 63.5993 279.085 63.2593 278.575C62.9293 278.055 62.7493 277.435 62.7193 276.715C62.7093 276.555 62.7043 276.355 62.7043 276.115C62.7043 275.865 62.7093 275.66 62.7193 275.5C62.7493 274.77 62.9293 274.15 63.2593 273.64C63.5893 273.12 64.0393 272.725 64.6093 272.455C65.1893 272.185 65.8493 272.05 66.5893 272.05C67.2793 272.05 67.8693 272.15 68.3593 272.35C68.8493 272.54 69.2493 272.78 69.5593 273.07C69.8693 273.36 70.0993 273.66 70.2493 273.97C70.4093 274.27 70.4943 274.535 70.5043 274.765C70.5143 274.865 70.4793 274.955 70.3993 275.035C70.3193 275.105 70.2293 275.14 70.1293 275.14H68.2243C68.1143 275.14 68.0293 275.115 67.9693 275.065C67.9093 275.015 67.8543 274.94 67.8043 274.84C67.6843 274.53 67.5293 274.31 67.3393 274.18C67.1593 274.05 66.9243 273.985 66.6343 273.985C66.2343 273.985 65.9243 274.115 65.7043 274.375C65.4943 274.635 65.3793 275.035 65.3593 275.575C65.3493 275.975 65.3493 276.33 65.3593 276.64C65.3793 277.19 65.4943 277.59 65.7043 277.84C65.9243 278.09 66.2343 278.215 66.6343 278.215C66.9443 278.215 67.1893 278.15 67.3693 278.02C67.5493 277.89 67.6943 277.67 67.8043 277.36C67.8543 277.26 67.9093 277.185 67.9693 277.135C68.0293 277.085 68.1143 277.06 68.2243 277.06H70.1293C70.2293 277.06 70.3193 277.1 70.3993 277.18C70.4793 277.25 70.5143 277.335 70.5043 277.435C70.4943 277.605 70.4443 277.805 70.3543 278.035C70.2643 278.255 70.1243 278.49 69.9343 278.74C69.7443 278.99 69.4943 279.225 69.1843 279.445C68.8843 279.655 68.5193 279.825 68.0893 279.955C67.6593 280.085 67.1593 280.15 66.5893 280.15ZM75.4519 280.15C74.2719 280.15 73.3319 279.83 72.6319 279.19C71.9319 278.55 71.5669 277.6 71.5369 276.34C71.5369 276.27 71.5369 276.18 71.5369 276.07C71.5369 275.96 71.5369 275.875 71.5369 275.815C71.5669 275.025 71.7419 274.35 72.0619 273.79C72.3919 273.22 72.8419 272.79 73.4119 272.5C73.9919 272.2 74.6669 272.05 75.4369 272.05C76.3169 272.05 77.0419 272.225 77.6119 272.575C78.1919 272.925 78.6269 273.4 78.9169 274C79.2069 274.6 79.3519 275.285 79.3519 276.055V276.415C79.3519 276.525 79.3119 276.615 79.2319 276.685C79.1619 276.755 79.0769 276.79 78.9769 276.79H74.1769C74.1769 276.8 74.1769 276.815 74.1769 276.835C74.1769 276.855 74.1769 276.875 74.1769 276.895C74.1869 277.185 74.2369 277.45 74.3269 277.69C74.4169 277.93 74.5569 278.12 74.7469 278.26C74.9369 278.4 75.1669 278.47 75.4369 278.47C75.6369 278.47 75.8019 278.44 75.9319 278.38C76.0719 278.31 76.1869 278.235 76.2769 278.155C76.3669 278.065 76.4369 277.99 76.4869 277.93C76.5769 277.83 76.6469 277.77 76.6969 277.75C76.7569 277.72 76.8469 277.705 76.9669 277.705H78.8269C78.9269 277.705 79.0069 277.735 79.0669 277.795C79.1369 277.845 79.1669 277.92 79.1569 278.02C79.1469 278.19 79.0619 278.395 78.9019 278.635C78.7419 278.875 78.5069 279.115 78.1969 279.355C77.8969 279.585 77.5169 279.775 77.0569 279.925C76.5969 280.075 76.0619 280.15 75.4519 280.15ZM74.1769 275.305H76.7119V275.275C76.7119 274.955 76.6619 274.675 76.5619 274.435C76.4719 274.195 76.3269 274.01 76.1269 273.88C75.9369 273.75 75.7069 273.685 75.4369 273.685C75.1669 273.685 74.9369 273.75 74.7469 273.88C74.5669 274.01 74.4269 274.195 74.3269 274.435C74.2269 274.675 74.1769 274.955 74.1769 275.275V275.305Z" fill="#2E2E31"/>
<path d="M334.5 248C343.06 248 350 254.94 350 263.5C350 272.06 343.06 279 334.5 279C325.94 279 319 272.06 319 263.5C319 254.94 325.94 248 334.5 248Z" fill="#4833E3"/>
<path fill-rule="evenodd" clip-rule="evenodd" d="M331.388 255.035C331.959 255.142 332.482 255.48 332.989 255.993L333.435 256.444L333.436 256.445L333.436 256.445L333.885 256.899C334.49 257.51 334.803 258.127 334.914 258.708C335.022 259.273 334.928 259.75 334.799 260.085C334.715 260.328 334.575 260.532 334.477 260.67C334.444 260.717 334.414 260.759 334.386 260.797C334.313 260.899 334.256 260.979 334.198 261.075C334.071 261.287 334.007 261.48 334.08 261.778C334.172 262.148 334.483 262.67 334.933 263.136C335.392 263.61 335.859 263.885 336.166 263.937C336.697 264.027 336.962 263.836 337.338 263.566C337.468 263.472 337.611 263.369 337.783 263.265C338.112 263.066 338.562 262.908 339.077 262.944C339.607 262.981 340.137 263.218 340.609 263.696L341.954 265.055C342.456 265.563 342.804 266.089 342.939 266.645C343.078 267.216 342.974 267.746 342.71 268.204C341.383 270.875 339.053 271.316 337.595 270.825C332.115 268.978 329.149 265.594 327.286 260.901C326.672 259.613 326.844 256.941 329.858 255.316C330.288 255.084 330.802 254.926 331.388 255.035Z" fill="white"/>
<rect width="350" height="77" transform="translate(20.0001 306)" fill="white"/>
<path d="M41.4251 338C41.3151 338 41.2251 337.965 41.1551 337.895C41.0851 337.825 41.0501 337.735 41.0501 337.625V327.875C41.0501 327.765 41.0851 327.675 41.1551 327.605C41.2251 327.535 41.3151 327.5 41.4251 327.5H46.0001C46.8601 327.5 47.5651 327.62 48.1151 327.86C48.6651 328.1 49.0701 328.445 49.3301 328.895C49.6001 329.335 49.7351 329.86 49.7351 330.47C49.7351 330.83 49.6651 331.15 49.5251 331.43C49.3951 331.7 49.2301 331.925 49.0301 332.105C48.8401 332.285 48.6601 332.415 48.4901 332.495C48.8701 332.675 49.2051 332.97 49.4951 333.38C49.7951 333.79 49.9451 334.27 49.9451 334.82C49.9451 335.48 49.7951 336.05 49.4951 336.53C49.2051 337 48.7751 337.365 48.2051 337.625C47.6451 337.875 46.9551 338 46.1351 338H41.4251ZM43.7351 336.05H45.8351C46.2651 336.05 46.5901 335.925 46.8101 335.675C47.0301 335.425 47.1401 335.14 47.1401 334.82C47.1401 334.47 47.0251 334.175 46.7951 333.935C46.5751 333.695 46.2551 333.575 45.8351 333.575H43.7351V336.05ZM43.7351 331.67H45.7001C46.1101 331.67 46.4151 331.565 46.6151 331.355C46.8251 331.145 46.9301 330.875 46.9301 330.545C46.9301 330.225 46.8251 329.965 46.6151 329.765C46.4151 329.555 46.1101 329.45 45.7001 329.45H43.7351V331.67ZM51.9866 338C51.8766 338 51.7866 337.965 51.7166 337.895C51.6466 337.825 51.6116 337.735 51.6116 337.625V327.875C51.6116 327.765 51.6466 327.675 51.7166 327.605C51.7866 327.535 51.8766 327.5 51.9866 327.5H58.9916C59.1016 327.5 59.1916 327.535 59.2616 327.605C59.3316 327.675 59.3666 327.765 59.3666 327.875V329.285C59.3666 329.395 59.3316 329.485 59.2616 329.555C59.1916 329.625 59.1016 329.66 58.9916 329.66H54.2066V331.685H58.6616C58.7716 331.685 58.8616 331.725 58.9316 331.805C59.0016 331.875 59.0366 331.965 59.0366 332.075V333.38C59.0366 333.48 59.0016 333.57 58.9316 333.65C58.8616 333.72 58.7716 333.755 58.6616 333.755H54.2066V335.84H59.1116C59.2216 335.84 59.3116 335.875 59.3816 335.945C59.4516 336.015 59.4866 336.105 59.4866 336.215V337.625C59.4866 337.735 59.4516 337.825 59.3816 337.895C59.3116 337.965 59.2216 338 59.1116 338H51.9866ZM61.5667 338C61.4567 338 61.3667 337.965 61.2967 337.895C61.2267 337.825 61.1917 337.735 61.1917 337.625V327.875C61.1917 327.765 61.2267 327.675 61.2967 327.605C61.3667 327.535 61.4567 327.5 61.5667 327.5H65.6467C66.9367 327.5 67.9517 327.8 68.6917 328.4C69.4417 328.99 69.8167 329.83 69.8167 330.92C69.8167 331.63 69.6417 332.23 69.2917 332.72C68.9517 333.21 68.5017 333.58 67.9417 333.83L70.0117 337.52C70.0417 337.58 70.0567 337.635 70.0567 337.685C70.0567 337.765 70.0217 337.84 69.9517 337.91C69.8917 337.97 69.8167 338 69.7267 338H67.7467C67.5567 338 67.4167 337.955 67.3267 337.865C67.2367 337.765 67.1717 337.675 67.1317 337.595L65.4217 334.295H63.8767V337.625C63.8767 337.735 63.8417 337.825 63.7717 337.895C63.7017 337.965 63.6117 338 63.5017 338H61.5667ZM63.8767 332.18H65.6167C66.0867 332.18 66.4367 332.065 66.6667 331.835C66.9067 331.605 67.0267 331.29 67.0267 330.89C67.0267 330.5 66.9117 330.185 66.6817 329.945C66.4617 329.705 66.1067 329.585 65.6167 329.585H63.8767V332.18ZM71.9378 338C71.8278 338 71.7378 337.965 71.6678 337.895C71.5978 337.825 71.5628 337.735 71.5628 337.625V327.875C71.5628 327.765 71.5978 327.675 71.6678 327.605C71.7378 327.535 71.8278 327.5 71.9378 327.5H73.5278C73.6978 327.5 73.8178 327.54 73.8878 327.62C73.9678 327.69 74.0178 327.745 74.0378 327.785L77.6978 333.56V327.875C77.6978 327.765 77.7328 327.675 77.8028 327.605C77.8728 327.535 77.9628 327.5 78.0728 327.5H79.8728C79.9828 327.5 80.0728 327.535 80.1428 327.605C80.2128 327.675 80.2478 327.765 80.2478 327.875V337.625C80.2478 337.725 80.2128 337.815 80.1428 337.895C80.0728 337.965 79.9828 338 79.8728 338H78.2678C78.1078 338 77.9878 337.96 77.9078 337.88C77.8378 337.8 77.7928 337.745 77.7728 337.715L74.1128 332.165V337.625C74.1128 337.735 74.0778 337.825 74.0078 337.895C73.9378 337.965 73.8478 338 73.7378 338H71.9378ZM81.7441 338C81.6641 338 81.5891 337.97 81.5191 337.91C81.4591 337.84 81.4291 337.765 81.4291 337.685C81.4291 337.635 81.4341 337.59 81.4441 337.55L84.9691 327.92C84.9991 327.81 85.0591 327.715 85.1491 327.635C85.2491 327.545 85.3841 327.5 85.5541 327.5H87.7741C87.9441 327.5 88.0741 327.545 88.1641 327.635C88.2641 327.715 88.3291 327.81 88.3591 327.92L91.8691 337.55C91.8891 337.59 91.8991 337.635 91.8991 337.685C91.8991 337.765 91.8641 337.84 91.7941 337.91C91.7341 337.97 91.6591 338 91.5691 338H89.7241C89.5741 338 89.4591 337.965 89.3791 337.895C89.3091 337.815 89.2641 337.745 89.2441 337.685L88.6591 336.155H84.6541L84.0841 337.685C84.0641 337.745 84.0191 337.815 83.9491 337.895C83.8791 337.965 83.7591 338 83.5891 338H81.7441ZM85.2691 333.995H88.0591L86.6491 330.035L85.2691 333.995ZM93.4564 338C93.3464 338 93.2564 337.965 93.1864 337.895C93.1164 337.825 93.0814 337.735 93.0814 337.625V327.875C93.0814 327.765 93.1164 327.675 93.1864 327.605C93.2564 327.535 93.3464 327.5 93.4564 327.5H97.5364C98.8264 327.5 99.8414 327.8 100.581 328.4C101.331 328.99 101.706 329.83 101.706 330.92C101.706 331.63 101.531 332.23 101.181 332.72C100.841 333.21 100.391 333.58 99.8314 333.83L101.901 337.52C101.931 337.58 101.946 337.635 101.946 337.685C101.946 337.765 101.911 337.84 101.841 337.91C101.781 337.97 101.706 338 101.616 338H99.6364C99.4464 338 99.3064 337.955 99.2164 337.865C99.1264 337.765 99.0614 337.675 99.0214 337.595L97.3114 334.295H95.7664V337.625C95.7664 337.735 95.7314 337.825 95.6614 337.895C95.5914 337.965 95.5014 338 95.3914 338H93.4564ZM95.7664 332.18H97.5064C97.9764 332.18 98.3264 332.065 98.5564 331.835C98.7964 331.605 98.9164 331.29 98.9164 330.89C98.9164 330.5 98.8014 330.185 98.5714 329.945C98.3514 329.705 97.9964 329.585 97.5064 329.585H95.7664V332.18ZM103.827 338C103.717 338 103.627 337.965 103.557 337.895C103.487 337.825 103.452 337.735 103.452 337.625V327.875C103.452 327.765 103.487 327.675 103.557 327.605C103.627 327.535 103.717 327.5 103.827 327.5H107.727C108.707 327.5 109.542 327.66 110.232 327.98C110.922 328.29 111.452 328.75 111.822 329.36C112.192 329.96 112.392 330.705 112.422 331.595C112.432 332.035 112.437 332.42 112.437 332.75C112.437 333.08 112.432 333.46 112.422 333.89C112.382 334.82 112.182 335.59 111.822 336.2C111.472 336.81 110.957 337.265 110.277 337.565C109.607 337.855 108.782 338 107.802 338H103.827ZM106.137 335.84H107.727C108.157 335.84 108.512 335.775 108.792 335.645C109.082 335.505 109.297 335.29 109.437 335C109.587 334.71 109.667 334.33 109.677 333.86C109.697 333.57 109.707 333.31 109.707 333.08C109.717 332.85 109.717 332.62 109.707 332.39C109.707 332.16 109.697 331.905 109.677 331.625C109.657 330.945 109.477 330.45 109.137 330.14C108.807 329.82 108.312 329.66 107.652 329.66H106.137V335.84ZM43.2626 361C43.1826 361 43.1076 360.97 43.0376 360.91C42.9776 360.84 42.9476 360.765 42.9476 360.685C42.9476 360.635 42.9526 360.59 42.9626 360.55L46.4876 350.92C46.5176 350.81 46.5776 350.715 46.6676 350.635C46.7676 350.545 46.9026 350.5 47.0726 350.5H49.2926C49.4626 350.5 49.5926 350.545 49.6826 350.635C49.7826 350.715 49.8476 350.81 49.8776 350.92L53.3876 360.55C53.4076 360.59 53.4176 360.635 53.4176 360.685C53.4176 360.765 53.3826 360.84 53.3126 360.91C53.2526 360.97 53.1776 361 53.0876 361H51.2426C51.0926 361 50.9776 360.965 50.8976 360.895C50.8276 360.815 50.7826 360.745 50.7626 360.685L50.1776 359.155H46.1726L45.6026 360.685C45.5826 360.745 45.5376 360.815 45.4676 360.895C45.3976 360.965 45.2776 361 45.1076 361H43.2626ZM46.7876 356.995H49.5776L48.1676 353.035L46.7876 356.995ZM54.8099 361C54.6999 361 54.6099 360.965 54.5399 360.895C54.4699 360.825 54.4349 360.735 54.4349 360.625V350.725C54.4349 350.615 54.4699 350.525 54.5399 350.455C54.6099 350.385 54.6999 350.35 54.8099 350.35H56.5799C56.6899 350.35 56.7799 350.385 56.8499 350.455C56.9199 350.525 56.9549 350.615 56.9549 350.725V360.625C56.9549 360.735 56.9199 360.825 56.8499 360.895C56.7799 360.965 56.6899 361 56.5799 361H54.8099ZM59.1019 361C58.9919 361 58.9019 360.965 58.8319 360.895C58.7619 360.825 58.7269 360.735 58.7269 360.625V353.575C58.7269 353.465 58.7619 353.375 58.8319 353.305C58.9019 353.235 58.9919 353.2 59.1019 353.2H60.8719C60.9719 353.2 61.0569 353.235 61.1269 353.305C61.2069 353.375 61.2469 353.465 61.2469 353.575V360.625C61.2469 360.735 61.2069 360.825 61.1269 360.895C61.0569 360.965 60.9719 361 60.8719 361H59.1019ZM59.0869 352.075C58.9769 352.075 58.8869 352.04 58.8169 351.97C58.7469 351.9 58.7119 351.81 58.7119 351.7V350.365C58.7119 350.255 58.7469 350.165 58.8169 350.095C58.8869 350.015 58.9769 349.975 59.0869 349.975H60.8719C60.9819 349.975 61.0719 350.015 61.1419 350.095C61.2219 350.165 61.2619 350.255 61.2619 350.365V351.7C61.2619 351.81 61.2219 351.9 61.1419 351.97C61.0719 352.04 60.9819 352.075 60.8719 352.075H59.0869ZM66.5893 361.15C65.8493 361.15 65.1943 361.015 64.6243 360.745C64.0543 360.475 63.5993 360.085 63.2593 359.575C62.9293 359.055 62.7493 358.435 62.7193 357.715C62.7093 357.555 62.7043 357.355 62.7043 357.115C62.7043 356.865 62.7093 356.66 62.7193 356.5C62.7493 355.77 62.9293 355.15 63.2593 354.64C63.5893 354.12 64.0393 353.725 64.6093 353.455C65.1893 353.185 65.8493 353.05 66.5893 353.05C67.2793 353.05 67.8693 353.15 68.3593 353.35C68.8493 353.54 69.2493 353.78 69.5593 354.07C69.8693 354.36 70.0993 354.66 70.2493 354.97C70.4093 355.27 70.4943 355.535 70.5043 355.765C70.5143 355.865 70.4793 355.955 70.3993 356.035C70.3193 356.105 70.2293 356.14 70.1293 356.14H68.2243C68.1143 356.14 68.0293 356.115 67.9693 356.065C67.9093 356.015 67.8543 355.94 67.8043 355.84C67.6843 355.53 67.5293 355.31 67.3393 355.18C67.1593 355.05 66.9243 354.985 66.6343 354.985C66.2343 354.985 65.9243 355.115 65.7043 355.375C65.4943 355.635 65.3793 356.035 65.3593 356.575C65.3493 356.975 65.3493 357.33 65.3593 357.64C65.3793 358.19 65.4943 358.59 65.7043 358.84C65.9243 359.09 66.2343 359.215 66.6343 359.215C66.9443 359.215 67.1893 359.15 67.3693 359.02C67.5493 358.89 67.6943 358.67 67.8043 358.36C67.8543 358.26 67.9093 358.185 67.9693 358.135C68.0293 358.085 68.1143 358.06 68.2243 358.06H70.1293C70.2293 358.06 70.3193 358.1 70.3993 358.18C70.4793 358.25 70.5143 358.335 70.5043 358.435C70.4943 358.605 70.4443 358.805 70.3543 359.035C70.2643 359.255 70.1243 359.49 69.9343 359.74C69.7443 359.99 69.4943 360.225 69.1843 360.445C68.8843 360.655 68.5193 360.825 68.0893 360.955C67.6593 361.085 67.1593 361.15 66.5893 361.15ZM75.4519 361.15C74.2719 361.15 73.3319 360.83 72.6319 360.19C71.9319 359.55 71.5669 358.6 71.5369 357.34C71.5369 357.27 71.5369 357.18 71.5369 357.07C71.5369 356.96 71.5369 356.875 71.5369 356.815C71.5669 356.025 71.7419 355.35 72.0619 354.79C72.3919 354.22 72.8419 353.79 73.4119 353.5C73.9919 353.2 74.6669 353.05 75.4369 353.05C76.3169 353.05 77.0419 353.225 77.6119 353.575C78.1919 353.925 78.6269 354.4 78.9169 355C79.2069 355.6 79.3519 356.285 79.3519 357.055V357.415C79.3519 357.525 79.3119 357.615 79.2319 357.685C79.1619 357.755 79.0769 357.79 78.9769 357.79H74.1769C74.1769 357.8 74.1769 357.815 74.1769 357.835C74.1769 357.855 74.1769 357.875 74.1769 357.895C74.1869 358.185 74.2369 358.45 74.3269 358.69C74.4169 358.93 74.5569 359.12 74.7469 359.26C74.9369 359.4 75.1669 359.47 75.4369 359.47C75.6369 359.47 75.8019 359.44 75.9319 359.38C76.0719 359.31 76.1869 359.235 76.2769 359.155C76.3669 359.065 76.4369 358.99 76.4869 358.93C76.5769 358.83 76.6469 358.77 76.6969 358.75C76.7569 358.72 76.8469 358.705 76.9669 358.705H78.8269C78.9269 358.705 79.0069 358.735 79.0669 358.795C79.1369 358.845 79.1669 358.92 79.1569 359.02C79.1469 359.19 79.0619 359.395 78.9019 359.635C78.7419 359.875 78.5069 360.115 78.1969 360.355C77.8969 360.585 77.5169 360.775 77.0569 360.925C76.5969 361.075 76.0619 361.15 75.4519 361.15ZM74.1769 356.305H76.7119V356.275C76.7119 355.955 76.6619 355.675 76.5619 355.435C76.4719 355.195 76.3269 355.01 76.1269 354.88C75.9369 354.75 75.7069 354.685 75.4369 354.685C75.1669 354.685 74.9369 354.75 74.7469 354.88C74.5669 355.01 74.4269 355.195 74.3269 355.435C74.2269 355.675 74.1769 355.955 74.1769 356.275V356.305Z" fill="#2E2E31"/>
<path d="M334.5 329C343.06 329 350 335.94 350 344.5C350 353.06 343.06 360 334.5 360C325.94 360 319 353.06 319 344.5C319 335.94 325.94 329 334.5 329Z" fill="#4833E3"/>
<path fill-rule="evenodd" clip-rule="evenodd" d="M331.388 336.035C331.959 336.142 332.482 336.48 332.989 336.993L333.435 337.444L333.436 337.445L333.436 337.445L333.885 337.899C334.49 338.51 334.803 339.127 334.914 339.708C335.022 340.273 334.928 340.75 334.799 341.085C334.715 341.328 334.575 341.532 334.477 341.67C334.444 341.717 334.414 341.759 334.386 341.797C334.313 341.899 334.256 341.979 334.198 342.075C334.071 342.287 334.007 342.48 334.08 342.778C334.172 343.148 334.483 343.67 334.933 344.136C335.392 344.61 335.859 344.885 336.166 344.937C336.697 345.027 336.962 344.836 337.338 344.566C337.468 344.472 337.611 344.369 337.783 344.265C338.112 344.066 338.562 343.908 339.077 343.944C339.607 343.981 340.137 344.218 340.609 344.696L341.954 346.055C342.456 346.563 342.804 347.089 342.939 347.645C343.078 348.216 342.974 348.746 342.71 349.204C341.383 351.875 339.053 352.316 337.595 351.825C332.115 349.978 329.149 346.594 327.286 341.901C326.672 340.613 326.844 337.941 329.858 336.316C330.288 336.084 330.802 335.926 331.388 336.035Z" fill="white"/>
</svg>
